<svg xmlns="http://www.w3.org/2000/svg" viewBox="0 0 1024 1024">
  <rect width="1024" height="1024" rx="220" fill="#10181c"/>
  <path d="M184 238c0-31 25-56 56-56h544c31 0 56 25 56 56v548c0 31-25 56-56 56H240c-31 0-56-25-56-56V238Z" fill="#f7faf9"/>
  <path d="M248 270c0-16 13-30 30-30h468c17 0 30 14 30 30v116H248V270Z" fill="#0f766e"/>
  <circle cx="302" cy="313" r="18" fill="#f7faf9"/>
  <circle cx="360" cy="313" r="18" fill="#f7faf9" opacity=".72"/>
  <circle cx="418" cy="313" r="18" fill="#f7faf9" opacity=".45"/>
  <path d="M306 490h250c20 0 36 16 36 36v30c0 20-16 36-36 36H306c-20 0-36-16-36-36v-30c0-20 16-36 36-36Z" fill="#10181c"/>
  <path d="M306 638h416c20 0 36 16 36 36v30c0 20-16 36-36 36H306c-20 0-36-16-36-36v-30c0-20 16-36 36-36Z" fill="#d9e7e5"/>
  <path d="M654 485h69c19 0 35 16 35 35v37c0 19-16 35-35 35h-69c-19 0-35-16-35-35v-37c0-19 16-35 35-35Z" fill="#b98335"/>
</svg>
